Coordinates
version=1
nRows=5
nColumns=40
inDegrees=yes

Units are S.I. units (second, meters, Newtons, ...)
Angles are in degrees.

endheader
time	pelvis_tilt	pelvis_list	pelvis_rotation	pelvis_tx	pelvis_ty	pelvis_tz	hip_flexion_r	hip_adduction_r	hip_rotation_r	knee_angle_r	knee_angle_r_beta	ankle_angle_r	subtalar_angle_r	mtp_angle_r	hip_flexion_l	hip_adduction_l	hip_rotation_l	knee_angle_l	knee_angle_l_beta	ankle_angle_l	subtalar_angle_l	mtp_angle_l	lumbar_extension	lumbar_bending	lumbar_rotation	arm_flex_r	arm_add_r	arm_rot_r	elbow_flex_r	pro_sup_r	wrist_flex_r	wrist_dev_r	arm_flex_l	arm_add_l	arm_rot_l	elbow_flex_l	pro_sup_l	wrist_flex_l	wrist_dev_l
     34.87750000	     -4.94776514	     -3.41902507	      2.18106530	      0.87599840	      0.91340292	      0.51821207	     18.82862790	      3.27609469	     -7.39389304	     29.26784842	     29.26784842	     15.93856818	    -13.61846818	     -1.18157133	     31.47045841	    -10.13539796	      4.60435408	     59.10886555	     59.10886555	     15.95651849	    -19.55386845	     22.25434487	    -13.58332309	      5.46098551	     -0.36729662	     11.66827686	    -17.97193881	    -11.14366223	     69.63878757	     45.20400379	      0.00000000	      0.00000000	     10.58178337	     -8.85179463	      3.13478352	     37.99835200	     46.84208497	      0.00000000	      0.00000000
     34.89471429	     -4.69387616	     -3.39296620	      3.09665696	      0.87516946	      0.91163720	      0.51864348	     18.80016351	      3.22548789	     -7.62005599	     30.36672208	     30.36672208	     16.95455584	    -14.50157851	      0.04188852	     32.37625961	     -9.89247448	      4.52075915	     57.35367011	     57.35367011	     16.13374799	    -19.54538733	     21.93076702	    -13.77249983	      5.36854324	     -0.17231727	     12.34741187	    -18.03305047	    -10.53912069	     72.55684295	     45.10710599	      0.00000000	      0.00000000	     10.98957786	     -8.39618855	      2.21770422	     32.85875626	     46.91353097	      0.00000000	      0.00000000
     34.91192857	     -4.49757068	     -3.27630963	      3.99561332	      0.87434406	      0.91015321	      0.51874299	     18.74208659	      3.01686628	     -7.99497504	     31.31408298	     31.31408298	     17.74037705	    -15.18857879	      0.89178917	     33.16054991	     -9.50290990	      4.38042136	     55.17941879	     55.17941879	     15.98403980	    -19.51758774	     21.30819503	    -13.91898390	      5.18399035	     -0.28037573	     13.47533941	    -17.46132546	    -10.68320904	     75.04826532	     45.05933418	      0.00000000	      0.00000000	     10.43175611	     -8.21944969	      1.12082008	     29.92241360	     47.00558082	      0.00000000	      0.00000000
     34.92914286	     -4.36322155	     -3.08298164	      4.80041910	      0.87355143	      0.90913315	      0.51861614	     18.57179062	      2.73060134	     -8.32777564	     31.94042159	     31.94042159	     18.21665518	    -15.76122509	      0.88050432	     33.76875389	     -8.91644262	      4.34212562	     52.61798684	     52.61798684	     15.85906087	    -19.46765306	     21.21002023	    -14.02648341	      4.91150146	     -0.53054897	     15.09120742	    -16.76574246	    -10.64191201	     76.75517174	     45.01181758	      0.00000000	      0.00000000	      9.23378155	     -8.55468693	      0.97919033	     28.72973127	     46.99783350	      0.00000000	      0.00000000
     34.94635714	     -4.31473614	     -2.92953485	      5.54723926	      0.87276592	      0.90856191	      0.51821617	     18.30121886	      2.46602311	     -8.75490251	     32.21916172	     32.21916172	     18.64077091	    -16.07071022	      1.03241618	     34.26086748	     -8.27140233	      4.47807198	     49.74015252	     49.74015252	     15.41106975	    -19.37795441	     20.63198075	    -14.05238036	      4.71841036	     -0.74494618	     16.73529814	    -16.13660489	    -10.36533901	     78.83559661	     44.94609421	      0.00000000	      0.00000000	      8.07191641	     -8.79917442	      0.77680702	     27.37517778	     47.00075614	      0.00000000	      0.00000000
